<svg width="13" height="13" viewBox="0 0 13 13" fill="none" xmlns="http://www.w3.org/2000/svg">
<path d="M0.292893 10.8996C-0.0976311 11.2901 -0.0976311 11.9233 0.292893 12.3138C0.683418 12.7043 1.31658 12.7043 1.70711 12.3138L1 11.6067L0.292893 10.8996ZM12.6066 1.00009C12.6066 0.447803 12.1589 8.72596e-05 11.6066 8.72596e-05H2.6066C2.05432 8.72596e-05 1.6066 0.447803 1.6066 1.00009C1.6066 1.55237 2.05432 2.00009 2.6066 2.00009H10.6066V10.0001C10.6066 10.5524 11.0543 11.0001 11.6066 11.0001C12.1589 11.0001 12.6066 10.5524 12.6066 10.0001V1.00009ZM1 11.6067L1.70711 12.3138L12.3137 1.70719L11.6066 1.00009L10.8995 0.29298L0.292893 10.8996L1 11.6067Z" fill="black"/>
</svg>
