<svg width="140" height="140" viewBox="0 0 140 140" fill="none" xmlns="http://www.w3.org/2000/svg">
<path d="M103.038 42C102.486 42 102.038 42.4477 102.038 43V48.9532V62.2892C84.365 70.0906 72.8878 84.1347 72.8878 84.1347H67.2647C67.2647 84.1347 57.2308 71.8683 41.4902 63.8972C40.3125 63.3956 39.1716 62.9235 38.1119 62.4908V62.2892V48.9557V43C38.1119 42.4477 37.6642 42 37.1119 42H31.7358C31.1836 42 30.7358 42.4477 30.7358 43V59.6313V68.2269V80.5598C30.7358 90.7437 38.9921 99 49.1761 99C49.5006 99 49.8104 98.9508 50.1301 98.9361C50.2333 98.941 50.3194 98.9582 50.4251 98.9607C61.9515 99.177 67.3286 89.9864 67.3286 89.9864H72.8435C72.8435 89.9864 78.2231 99.177 89.7471 98.9607C89.8479 98.9582 89.9315 98.941 90.0323 98.9385C90.347 98.9533 90.6568 99 90.9764 99C101.163 99 109.417 90.7437 109.417 80.5598V68.2269V59.4568V43C109.417 42.4477 108.969 42 108.417 42H103.038Z" fill="black"/>
</svg>
