<svg width="140" height="140" viewBox="0 0 140 140" fill="none" xmlns="http://www.w3.org/2000/svg">
<path d="M82.4794 42.074L82.4396 42.0958L78.9857 35.7258L84.9966 32.4467V32.443L85.5933 32.0807L90.0817 17.6994L81.4522 15L80.5842 17.79H80.454L70.0127 51.4912L70.0958 51.426L70.0705 51.5021L82.4794 42.074Z" fill="black"/>
<path d="M93.192 17.79H93.116L93.0473 17.8915H93.1197L93.192 17.79Z" fill="black"/>
<path d="M69.9765 51.426L58.6165 15L49.9907 17.6994L50.016 17.79H49.9437L54.4609 32.28L60.7756 35.7258L57.4483 41.8566L69.8861 51.4151L69.9222 51.5347L69.9439 51.4623L69.9837 51.4912L69.962 51.4188L69.9765 51.426Z" fill="black"/>
<path d="M110.284 34.8852L106.921 25.7035C106.787 25.6129 106.675 25.4934 106.624 25.3267C106.194 23.8338 104.223 20.7648 101.749 19.272C100.718 18.6524 99.4561 18.2393 98.3313 17.9603V17.8915H94.324L90.1395 31.3053L89.9478 31.4212H90.0817L89.0364 34.9685L84.5156 37.5339L87.3004 43.4219L85.1847 45.0126L85.163 44.9727L72.2586 54.774V115.865H93.5466C95.5398 115.865 97.1572 114.249 97.1633 112.252L97.3295 57.796L111.945 99.0302L120.4 122.601C121.036 124.375 122.922 125.363 124.739 124.876L137.318 121.501C139.364 120.952 140.503 118.767 139.784 116.771L110.284 34.8852Z" fill="black"/>
<path d="M29.7155 34.8852L33.0791 25.7035C33.2129 25.6129 33.325 25.4934 33.3756 25.3267C33.806 23.8339 35.7771 20.7648 38.2509 19.272C39.2817 18.6524 40.5439 18.2393 41.6687 17.9603V17.8915H45.676L49.8605 31.3053L50.0522 31.4213H49.9184L50.9636 34.9686L55.4844 37.5339L52.6996 43.422L54.8153 45.0126L54.837 44.9728L67.7414 54.7741V115.865H46.4534C44.4603 115.865 42.8428 114.249 42.8367 112.252L42.6705 57.796L28.0555 99.0302L19.6001 122.601C18.9641 124.375 17.0777 125.363 15.261 124.876L2.68242 121.501C0.636377 120.952 -0.50294 118.767 0.216139 116.771L29.7155 34.8852Z" fill="black"/>
</svg>
