<svg width="140" height="140" viewBox="0 0 140 140" fill="none" xmlns="http://www.w3.org/2000/svg">
<path d="M110.984 117.725V114.278L86.003 62.6905L92.89 34.3726V34.3726C92.897 34.3682 92.8962 34.3578 92.8887 34.3544C88.7237 32.4939 85.7786 28.2917 85.7786 23.305V16C85.7786 15.4477 85.3309 15 84.7786 15H77.4958C77.4958 19.7622 73.7569 23.6218 69.1403 23.6218C64.527 23.6218 60.7882 19.7622 60.7882 15H53.5053C52.953 15 52.5053 15.4477 52.5053 16V23.3015C52.5053 27.9752 49.9154 31.9719 46.1613 33.9865C46.1571 33.9888 46.1562 33.9944 46.1596 33.9978V33.9978L53.4557 62.6871L28 114.275V123C28 123.552 28.4477 124 29 124H72.8659H76.2682H103.189H105.4H109.997C110.551 124 110.999 123.551 110.997 122.997L110.984 117.725Z" fill="black"/>
</svg>
