<svg width="140" height="140" viewBox="0 0 140 140" fill="none" xmlns="http://www.w3.org/2000/svg">
<path d="M69.3691 49.6266C54.4541 49.5009 38.554 46.9569 34.1741 46.2066C33.5581 46.101 33 46.5764 33 47.2013V56.2891C33 56.7453 33.3112 57.1428 33.7504 57.2661C49.5399 61.6986 59.7943 76.2006 60.2027 92.329C60.2166 92.8811 60.663 93.3299 61.2153 93.3299H77.3433C77.8956 93.3299 78.342 92.881 78.356 92.3289C78.7663 76.141 89.1047 61.6935 104.98 57.3272C105.422 57.2057 105.736 56.807 105.736 56.3489V47.2199C105.736 46.5888 105.166 46.1116 104.545 46.226C100.143 47.0379 84.2637 49.7521 69.3691 49.6266Z" fill="black"/>
</svg>
